<svg width="40" height="79" viewBox="0 0 40 79" fill="none" xmlns="http://www.w3.org/2000/svg">
<path d="M20.1932 37.9986C20.1932 37.0315 20.9473 36.2477 21.8776 36.2477H25.6454C26.5757 36.2477 27.3298 37.0315 27.3298 37.9986C27.3298 38.9656 26.5757 39.7495 25.6454 39.7495H21.8776C20.9473 39.7495 20.1932 38.9656 20.1932 37.9986ZM21.8776 60.4725H25.6454C26.5757 60.4725 27.3298 59.6887 27.3298 58.7216C27.3298 57.7546 26.5757 56.9707 25.6454 56.9707H21.8776C20.9473 56.9707 20.1932 57.7546 20.1932 58.7216C20.1932 59.6887 20.9473 60.4725 21.8776 60.4725ZM21.8533 67.3803H25.6699C26.6002 67.3803 27.3543 66.5965 27.3543 65.6294C27.3543 64.6624 26.6002 63.8785 25.6699 63.8785H21.8535C20.9232 63.8785 20.1691 64.6624 20.1691 65.6294C20.1691 66.5965 20.923 67.3803 21.8533 67.3803ZM39.5898 19.0984V26.3789C39.5898 27.3459 38.8357 28.1298 37.9054 28.1298H36.8123L35.2742 75.4341C35.2098 77.4334 33.6782 79 31.7878 79H10.9249C9.03499 79 7.50342 77.4338 7.43835 75.4342L6.93994 60.1065C3.03371 59.6037 0 56.1323 0 51.9381C0 49.1586 2.54505 44.4349 5.38089 39.4288C5.70341 38.8591 5.99419 38.3462 6.21919 37.9364L5.90004 28.1298H4.80766C3.87733 28.1298 3.12325 27.3459 3.12325 26.3789V19.0984C3.12325 18.1314 3.87733 17.3475 4.80766 17.3475H7.55626V11.818C7.55626 10.851 8.31034 10.0671 9.24067 10.0671H16.2389L16.1843 3.5018H12.4233C11.493 3.5018 10.7389 2.71795 10.7389 1.7509C10.7389 0.78385 11.493 0 12.4233 0H17.8503C17.8528 0 17.8551 0.000184305 17.8576 0H24.8543C24.8569 0 24.8594 0.000184305 24.8617 0H33.472C37.0708 0 39.9987 3.04343 39.9987 6.78446C39.9987 9.92022 37.9414 12.5659 35.1564 13.3398V17.3475H37.9054C38.8357 17.3475 39.5898 18.1314 39.5898 19.0984ZM26.5573 3.5018L26.6121 10.0671H33.472C35.2132 10.0671 36.6299 8.59452 36.6299 6.78427C36.6299 4.9744 35.2134 3.50161 33.472 3.50161L26.5573 3.5018ZM19.5532 3.5018L19.6079 10.0671H23.2431L23.1883 3.5018H19.5532ZM10.9251 17.3475H31.7876V13.5689H10.9251V17.3475ZM12.468 51.9381C12.468 50.0381 9.52524 44.6993 7.91849 41.8515C6.31157 44.6992 3.369 50.0381 3.369 51.9381C3.369 54.5457 5.40997 56.6672 7.91849 56.6672C10.427 56.6672 12.468 54.5457 12.468 51.9381ZM33.4415 28.1298H9.27099L9.58819 37.8823C9.81691 38.3004 10.1189 38.8336 10.4561 39.4288C13.2918 44.4349 15.837 49.1586 15.837 51.9381C15.837 55.6143 13.5065 58.7353 10.3004 59.7886L10.8052 75.3157C10.8086 75.4129 10.8644 75.4982 10.9251 75.4982H31.788C31.8486 75.4982 31.9043 75.413 31.9077 75.3163L33.4415 28.1298ZM36.221 20.8493H6.49207V24.628H36.221V20.8493ZM21.8776 53.5648H25.6454C26.5757 53.5648 27.3298 52.7809 27.3298 51.8139C27.3298 50.8468 26.5757 50.063 25.6454 50.063H21.8776C20.9473 50.063 20.1932 50.8468 20.1932 51.8139C20.1932 52.7809 20.9473 53.5648 21.8776 53.5648ZM21.8776 46.657H25.6454C26.5757 46.657 27.3298 45.8732 27.3298 44.9061C27.3298 43.9391 26.5757 43.1552 25.6454 43.1552H21.8776C20.9473 43.1552 20.1932 43.9391 20.1932 44.9061C20.1932 45.8732 20.9473 46.657 21.8776 46.657Z" fill="white"/>
</svg>
