<svg width="50" height="67" viewBox="0 0 50 67" fill="none" xmlns="http://www.w3.org/2000/svg">
<path d="M48.6262 15.1143H23.8002C23.7059 14.8826 23.5916 14.6596 23.4586 14.4477C23.4373 14.4113 23.4144 14.3587 23.3899 14.3241L13.608 0.598799C13.4822 0.417887 13.3154 0.269317 13.1212 0.165241C12.927 0.0611655 12.7109 0.00454127 12.4906 0H12.4897C12.2701 0.00279002 12.0544 0.0576252 11.8602 0.160001C11.666 0.262376 11.4988 0.40937 11.3724 0.588906L1.59049 14.2604C1.56493 14.2962 1.54102 14.3367 1.51904 14.3748C-0.536361 17.9197 -0.504209 22.2237 1.60519 25.8849C2.70439 27.8039 4.28837 29.4005 6.19858 30.5148C8.10879 31.6292 10.2782 32.2222 12.4897 32.2346C12.5067 32.2346 12.5236 32.2346 12.5406 32.2346L16.3906 60.8111C16.617 62.4587 17.4303 63.9692 18.681 65.0653C19.9318 66.1614 21.536 66.7694 23.1991 66.7775H37.2223C38.8855 66.7694 40.4899 66.1614 41.7407 65.0652C42.9915 63.9689 43.8047 62.4582 44.0309 60.8104L49.9879 16.6107C50.0139 16.4213 49.998 16.2285 49.9414 16.0459C49.8848 15.8634 49.7888 15.6954 49.6603 15.5539C49.5297 15.4105 49.3698 15.297 49.1913 15.2211C49.0128 15.1452 48.8201 15.1088 48.6262 15.1143ZM3.98624 24.5155C2.36035 21.6934 2.31694 18.5247 3.86464 15.8124L12.4881 3.76592L21.1151 15.8503C22.6588 18.5407 22.619 21.6912 21.0026 24.5042C20.1546 26.0147 18.92 27.2724 17.4253 28.1481C15.9307 29.0237 14.2299 29.4859 12.4977 29.487C10.7654 29.4882 9.06407 29.0283 7.56829 28.1546C6.0725 27.2809 4.83617 26.0249 3.98624 24.5155ZM41.3075 60.4433C41.1719 61.4325 40.6842 62.3397 39.9339 62.9984C39.1835 63.6572 38.2208 64.0232 37.2223 64.0295H23.1991C22.2006 64.0232 21.2379 63.6571 20.4876 62.9984C19.7373 62.3397 19.2496 61.4325 19.1141 60.4433L15.9444 36.9218C17.2983 37.0977 18.1534 37.5029 19.1059 37.9584C20.4784 38.6149 22.0342 39.3571 24.993 39.3571C27.9518 39.3571 29.5078 38.6121 30.8804 37.9556C32.1499 37.3484 33.2463 36.8235 35.5819 36.8235C37.9175 36.8235 39.0139 37.3477 40.2835 37.9549C41.307 38.4445 42.4328 38.9897 44.1657 39.2318L41.3075 60.4433ZM44.5328 36.5353C43.2363 36.3527 42.398 35.9366 41.4688 35.4924C40.0961 34.8359 38.5405 34.0832 35.5815 34.0832C32.6225 34.0832 31.0669 34.823 29.6942 35.4796C28.4246 36.0868 27.3281 36.6089 24.9926 36.6089C22.657 36.6089 21.5615 36.0839 20.2915 35.4773C19.1111 34.9127 17.7943 34.2834 15.5673 34.1181L15.2705 31.9161C16.9634 31.526 18.5576 30.7912 19.9538 29.7575C21.35 28.7238 22.5182 27.4134 23.3854 25.9082C24.8471 23.3636 25.303 20.4729 24.7524 17.8623H47.0544L44.5328 36.5353Z" fill="white"/>
<path d="M19.7256 19.8097C19.7256 19.4453 19.5808 19.0958 19.3231 18.8381C19.0655 18.5804 18.716 18.4357 18.3516 18.4357C17.9871 18.4357 17.6377 18.5804 17.38 18.8381C17.1223 19.0958 16.9775 19.4453 16.9775 19.8097C16.976 21.0191 16.4949 22.1785 15.6397 23.0336C14.7845 23.8888 13.6251 24.3699 12.4158 24.3714C12.0514 24.3714 11.7019 24.5162 11.4442 24.7739C11.1865 25.0316 11.0417 25.3811 11.0417 25.7455C11.0417 26.1099 11.1865 26.4594 11.4442 26.7171C11.7019 26.9747 12.0514 27.1195 12.4158 27.1195C14.3537 27.1172 16.2117 26.3463 17.582 24.9759C18.9524 23.6056 19.7232 21.7477 19.7256 19.8097Z" fill="white"/>
</svg>
