<svg width="38" height="73" viewBox="0 0 38 73" fill="none" xmlns="http://www.w3.org/2000/svg">
<path d="M14.6 0C12.199 0 10.22 1.97898 10.22 4.38V8.76C10.22 9.52422 10.488 10.3055 11.0412 10.8588C11.4519 11.2694 11.9766 11.5317 12.5469 11.6344C12.3302 11.8055 12.0621 11.9366 11.7256 11.9994H11.68C5.04726 13.4537 0 19.3051 0 26.4169V30.66C0 32.4964 1.30031 33.8024 2.92 34.4469V53.1531C1.30031 53.7976 0 55.1036 0 56.94V65.7C0 69.7093 3.2907 73 7.3 73H30.66C34.6693 73 37.96 69.7093 37.96 65.7V56.94C37.96 55.1036 36.6597 53.7976 35.04 53.1531V34.4469C36.6597 33.8024 37.96 32.4964 37.96 30.66V26.4169C37.96 19.3051 32.9127 13.4537 26.28 11.9994H26.2344C25.8979 11.9366 25.6298 11.8055 25.4131 11.6344C25.9834 11.5317 26.5081 11.2694 26.9187 10.8588C27.472 10.3055 27.74 9.52422 27.74 8.76V4.38C27.74 1.97898 25.761 0 23.36 0H14.6ZM14.6 2.92H23.36C24.1698 2.92 24.82 3.57016 24.82 4.38V8.76H13.14V4.38C13.14 3.57016 13.7902 2.92 14.6 2.92ZM15.5581 11.68H22.4019C22.9323 13.2084 24.0102 14.4973 25.6869 14.8281V14.8738C25.6983 14.8738 25.7211 14.8738 25.7325 14.8738C31.0535 16.06 35.04 20.6966 35.04 26.4169V30.66C35.04 31.4698 34.3898 32.12 33.58 32.12H8.76V35.04H32.12V52.56H8.76V55.48H33.58C34.3898 55.48 35.04 56.1302 35.04 56.94V65.7C35.04 68.1181 33.0781 70.08 30.66 70.08H7.3C4.88187 70.08 2.92 68.1181 2.92 65.7V56.94C2.92 56.1302 3.57016 55.48 4.38 55.48H5.84V32.12H4.38C3.57016 32.12 2.92 31.4698 2.92 30.66V26.4169C2.92 20.6966 6.90648 16.06 12.2275 14.8738C12.2503 14.868 12.2503 14.8338 12.2731 14.8281C13.9498 14.4973 15.0277 13.2084 15.5581 11.68Z" fill="white"/>
</svg>
