<svg width="32" height="86" viewBox="0 0 32 86" fill="none" xmlns="http://www.w3.org/2000/svg">
<path d="M27.2333 12.9H22.9333V9.31672C22.9333 7.57119 21.6317 6.15169 20.0666 5.81155V3.58328C20.0666 1.57672 18.4898 0 16.6266 0H15.0498C13.0433 0 11.4666 1.57672 11.4666 3.58328V5.73328H10.0333C9.17328 5.73328 8.6 6.30655 8.6 7.16655V12.9H4.3C1.86328 12.9 0 14.7633 0 17.2V22.9333V29.9566C0 30.2433 0.143277 30.6733 0.43 30.9598C2.86672 33.3966 4.3 36.6931 4.3 40.1331C4.3 43.5731 2.86672 46.8698 0.43 49.3064C0.143277 49.5931 0 49.8797 0 50.3097V58.7664V81.7C0 84.1367 1.86328 86 4.3 86H27.2333C29.5266 86 31.5333 84.1367 31.5333 81.7V58.7667V50.31C31.5333 49.88 31.39 49.5933 31.1033 49.3067C28.6666 46.87 27.2333 43.5734 27.2333 40.1334C27.2333 36.6934 28.6666 33.3967 31.1033 30.9602C31.39 30.6734 31.5333 30.3869 31.5333 29.9569V22.9336V17.2C31.5333 14.7633 29.6698 12.9 27.2333 12.9ZM14.3333 3.58328C14.3333 3.15328 14.62 2.86655 14.9066 2.86655H16.4833C16.9133 2.86655 17.2 3.15328 17.2 3.58328V5.73328H14.3333V3.58328ZM11.4666 8.6H12.8998H18.6331H19.2064C19.6364 8.6 20.0664 8.88672 20.0664 9.31672V12.9H11.4664L11.4666 8.6ZM2.86655 17.2C2.86655 16.34 3.43983 15.7667 4.29983 15.7667H10.0331H21.4998H27.2331C28.0931 15.7667 28.6664 16.34 28.6664 17.2V21.5H2.86655V17.2ZM28.6666 81.7C28.6666 82.56 28.0933 83.1333 27.2333 83.1333H4.29983C3.43983 83.1333 2.86655 82.56 2.86655 81.7V60.2H28.6666V81.7ZM28.6666 29.0967C25.9433 32.1067 24.3666 35.8334 24.3666 39.99C24.3666 44.1466 25.9433 47.8733 28.6666 50.8833V57.3333H2.86655V50.8833C5.58983 48.0166 7.16655 44.29 7.16655 40.1333C7.16655 35.9766 5.58983 32.25 2.86655 29.24V24.3667H28.6666V29.0967Z" fill="white"/>
</svg>
