<svg width="24" height="22" viewBox="0 0 24 22" fill="none" xmlns="http://www.w3.org/2000/svg">
<path d="M5.74402 17.9507H1.7778C1.56091 17.9507 1.35291 17.8646 1.19954 17.7112C1.04618 17.5578 0.960022 17.3498 0.960022 17.133C0.960022 16.9161 1.04618 16.7081 1.19954 16.5547C1.35291 16.4013 1.56091 16.3152 1.7778 16.3152H5.74402C5.96091 16.3152 6.16891 16.4013 6.32228 16.5547C6.47564 16.7081 6.5618 16.9161 6.5618 17.133C6.5618 17.3498 6.47564 17.5578 6.32228 17.7112C6.16891 17.8646 5.96091 17.9507 5.74402 17.9507ZM9.01513 19.5863H3.41335C3.19647 19.5863 2.98846 19.6724 2.8351 19.8258C2.68174 19.9792 2.59558 20.1872 2.59558 20.4041C2.59558 20.621 2.68174 20.829 2.8351 20.9823C2.98846 21.1357 3.19647 21.2218 3.41335 21.2218H9.01513C9.23202 21.2218 9.44002 21.1357 9.59339 20.9823C9.74675 20.829 9.83291 20.621 9.83291 20.4041C9.83291 20.1872 9.74675 19.9792 9.59339 19.8258C9.44002 19.6724 9.23202 19.5863 9.01513 19.5863ZM22.1364 16.1751L19.2098 14.7123C18.3929 14.3072 17.7058 13.6814 17.2265 12.9058C16.7472 12.1301 16.4947 11.2357 16.4978 10.3239V7.31962C16.4978 7.10397 16.4126 6.89704 16.2608 6.74388C16.109 6.59072 15.9028 6.50373 15.6872 6.50184C14.3863 6.50239 13.1383 5.98682 12.217 5.06828C11.2958 4.14974 10.7766 2.90325 10.7734 1.60233C10.7746 1.44959 10.7329 1.29957 10.6533 1.16926C10.5736 1.03895 10.459 0.933566 10.3225 0.865043C10.1859 0.796521 10.033 0.767601 9.88087 0.78156C9.72876 0.795519 9.5836 0.851799 9.46184 0.944023L3.11793 5.75358C3.07167 5.78888 3.03348 5.83365 3.00591 5.8849C2.97834 5.93615 2.96202 5.99269 2.95805 6.05075C2.95409 6.10881 2.96256 6.16705 2.9829 6.22157C3.00324 6.27609 3.03499 6.32564 3.07602 6.36691L8.33433 11.6252C8.48511 11.7719 8.57514 11.97 8.58651 12.1801C8.59787 12.3901 8.52974 12.5968 8.39566 12.7589C8.3222 12.8439 8.23199 12.913 8.13066 12.9616C8.02933 13.0103 7.91906 13.0375 7.80673 13.0416C7.6944 13.0457 7.58243 13.0267 7.47781 12.9856C7.37318 12.9445 7.27815 12.8823 7.19864 12.8028L1.78087 7.38504C1.73472 7.33869 1.67812 7.30409 1.61583 7.28414C1.55354 7.26419 1.48737 7.25947 1.42288 7.27039C1.35838 7.2813 1.29745 7.30753 1.2452 7.34687C1.19294 7.38621 1.15088 7.43751 1.12256 7.49647C0.976485 7.80176 0.928719 8.14485 0.985842 8.47843C1.04296 8.81201 1.20216 9.11966 1.44149 9.35895L13.0631 20.9826C13.1391 21.0586 13.2293 21.1188 13.3286 21.1598C13.4279 21.2008 13.5343 21.2219 13.6417 21.2218H21.4045C21.8382 21.2218 22.2542 21.0495 22.561 20.7428C22.8677 20.4361 23.04 20.0201 23.04 19.5863V17.6379C23.041 17.3341 22.9569 17.036 22.7972 16.7774C22.6374 16.5189 22.4085 16.3103 22.1364 16.1751Z" />
</svg>
